#N canvas 583 81 830 623 12;
#X obj 361 31 vradio 15 1 0 7 source empty empty 0 -8 0 10 -262144
-1 -1 0;
#X msg 422 269 1;
#X msg 471 270 1;
#X msg 522 271 1;
#X msg 725 267 0;
#X obj 462 160 t f b;
#X obj 454 209 sel 0 1 2 3 4 5 6;
#X msg 573 269 1;
#X msg 622 270 1;
#X msg 673 271 1;
#X floatatom 416 324 5 0 0 0 - - -;
#X floatatom 470 323 5 0 0 0 - - -;
#X floatatom 523 324 5 0 0 0 - - -;
#X floatatom 694 322 5 0 0 0 - - -;
#X floatatom 582 322 5 0 0 0 - - -;
#X floatatom 639 324 5 0 0 0 - - -;
#X obj 462 126 r source;
#X obj 113 500 *~;
#X obj 161 501 *~;
#X obj 71 501 *~;
#X obj 208 501 *~;
#X obj 253 501 *~;
#X obj 298 502 *~;
#X obj 71 357 osc~;
#X obj 717 4 bng 15 250 50 0 empty empty empty 17 7 0 10 -262144 -1
-1;
#X obj 215 126 phasor~;
#X obj 112 255 *~ 2;
#X obj 112 317 clip~ 0 1;
#X obj 173 286 clip~ 0 1;
#X obj 113 357 +~;
#X msg 717 30 \; pd dsp 1;
#X obj 174 219 *~ -2;
#X obj 113 286 +~ -1;
#X obj 174 252 +~ 1;
#X obj 296 308 noise~;
#X obj 209 316 *~ -1;
#X obj 209 346 +~ 1;
#X obj 254 192 *~ 2;
#X obj 254 234 expr~ if ($v1 < 1 \, 0 \, 1);
#X msg 377 272 0;
#X obj 74 44 inlet;
#X obj 201 573 outlet~;
#X connect 1 0 10 0;
#X connect 2 0 11 0;
#X connect 3 0 12 0;
#X connect 4 0 10 0;
#X connect 4 0 11 0;
#X connect 4 0 12 0;
#X connect 4 0 14 0;
#X connect 4 0 15 0;
#X connect 4 0 13 0;
#X connect 5 0 6 0;
#X connect 5 1 4 0;
#X connect 6 0 39 0;
#X connect 6 1 1 0;
#X connect 6 2 2 0;
#X connect 6 3 3 0;
#X connect 6 4 7 0;
#X connect 6 5 8 0;
#X connect 6 6 9 0;
#X connect 7 0 14 0;
#X connect 8 0 15 0;
#X connect 9 0 13 0;
#X connect 10 0 19 1;
#X connect 11 0 17 1;
#X connect 12 0 18 1;
#X connect 13 0 22 1;
#X connect 14 0 20 1;
#X connect 15 0 21 1;
#X connect 16 0 5 0;
#X connect 17 0 41 0;
#X connect 18 0 41 0;
#X connect 19 0 41 0;
#X connect 20 0 41 0;
#X connect 21 0 41 0;
#X connect 22 0 41 0;
#X connect 23 0 19 0;
#X connect 24 0 30 0;
#X connect 25 0 26 0;
#X connect 25 0 31 0;
#X connect 25 0 18 0;
#X connect 25 0 35 0;
#X connect 25 0 37 0;
#X connect 26 0 32 0;
#X connect 27 0 29 0;
#X connect 28 0 29 1;
#X connect 29 0 17 0;
#X connect 31 0 33 0;
#X connect 32 0 27 0;
#X connect 33 0 28 0;
#X connect 34 0 22 0;
#X connect 35 0 36 0;
#X connect 36 0 20 0;
#X connect 37 0 38 0;
#X connect 38 0 21 0;
#X connect 39 0 13 0;
#X connect 39 0 15 0;
#X connect 39 0 14 0;
#X connect 39 0 12 0;
#X connect 39 0 11 0;
#X connect 39 0 10 0;
#X connect 40 0 25 0;
#X connect 40 0 23 0;
#X coords 0 -1 1 1 110 150 1 280 10;
