#N canvas 773 214 624 644 12;
#X obj 19 18 play;
#X obj 20 126 hilbert~;
#X obj 123 126 hilbert~;
#X obj 279 71 loadbang;
#X msg 279 95 -0.25;
#X obj 254 126 osc~;
#X obj 204 125 osc~;
#X floatatom 204 70 5 0 0 0 - - -;
#X obj 20 207 *~;
#X obj 123 203 *~;
#X obj 19 269 +~;
#X obj 105 267 -~;
#X obj 20 310 output_;
#X connect 0 0 1 0;
#X connect 0 0 2 0;
#X connect 1 0 8 0;
#X connect 2 0 9 0;
#X connect 3 0 4 0;
#X connect 4 0 5 1;
#X connect 5 0 9 1;
#X connect 6 0 8 1;
#X connect 7 0 6 0;
#X connect 7 0 5 0;
#X connect 8 0 10 0;
#X connect 8 0 11 0;
#X connect 9 0 10 1;
#X connect 9 0 11 1;
#X connect 10 0 12 0;
#X connect 11 0 12 1;
